<svg xmlns="http://www.w3.org/2000/svg" xmlns:xlink="http://www.w3.org/1999/xlink" width="500" zoomAndPan="magnify" viewBox="0 0 375 374.999991" height="500" preserveAspectRatio="xMidYMid meet" version="1.0"><defs><clipPath id="e8a9f467cf"><path d="M 49 88 L 326 88 L 326 371.355469 L 49 371.355469 Z M 49 88 " clip-rule="nonzero"/></clipPath><clipPath id="9e3e416ef5"><path d="M 42.585938 3.855469 L 332.085938 3.855469 L 332.085938 107 L 42.585938 107 Z M 42.585938 3.855469 " clip-rule="nonzero"/></clipPath></defs><g clip-path="url(#e8a9f467cf)"><path fill="#32746d" d="M 312.398438 198.449219 C 312.398438 196.625 312.625 194.570312 312.625 192.746094 C 312.625 164.6875 301.21875 136.625 280.003906 117.464844 C 255.59375 95.335938 219.546875 88.035156 187.382812 88.035156 C 123.960938 88.035156 62.367188 122.9375 62.367188 192.746094 C 62.367188 194.570312 62.367188 196.398438 62.59375 198.449219 C 48.679688 204.152344 45.484375 240.652344 55.75 282.171875 C 66.246094 325.0625 84.722656 358.824219 99.78125 355.175781 C 107.078125 353.351562 112.097656 343.3125 114.378906 328.710938 C 134.910156 353.804688 160.460938 371.144531 187.839844 371.144531 C 215.214844 371.144531 240.765625 353.804688 261.296875 328.710938 C 262.894531 338.976562 265.859375 346.960938 269.964844 351.523438 C 271.105469 353.351562 272.703125 354.492188 274.070312 354.945312 C 274.300781 354.945312 274.527344 354.945312 274.984375 355.175781 C 275.210938 355.175781 275.441406 355.402344 275.894531 355.402344 C 290.953125 359.054688 309.429688 325.0625 319.925781 282.402344 C 329.734375 240.425781 326.539062 203.695312 312.398438 198.449219 Z M 312.398438 198.449219 " fill-opacity="1" fill-rule="nonzero"/></g><path fill="#ffffff" d="M 159.777344 275.558594 L 182.589844 261.871094 L 159.777344 286.050781 L 136.964844 261.871094 Z M 159.777344 275.558594 " fill-opacity="1" fill-rule="nonzero"/><path fill="#ffffff" d="M 110.957031 275.558594 L 133.769531 261.871094 L 110.957031 286.050781 L 88.144531 261.871094 Z M 110.957031 275.558594 " fill-opacity="1" fill-rule="nonzero"/><path fill="#ffffff" d="M 215.898438 276.699219 L 238.710938 263.011719 L 215.898438 287.191406 L 193.085938 263.011719 Z M 215.898438 276.699219 " fill-opacity="1" fill-rule="nonzero"/><path fill="#ffffff" d="M 264.261719 276.699219 L 287.074219 263.011719 L 264.261719 287.191406 L 241.449219 263.011719 Z M 264.261719 276.699219 " fill-opacity="1" fill-rule="nonzero"/><path fill="#ffffff" d="M 136.964844 308.863281 L 159.777344 295.175781 L 148.371094 307.269531 L 136.964844 319.359375 L 125.558594 307.269531 L 114.152344 295.175781 Z M 136.964844 308.863281 " fill-opacity="1" fill-rule="nonzero"/><path fill="#ffffff" d="M 188.066406 308.863281 L 210.878906 295.175781 L 199.472656 307.269531 L 188.066406 319.359375 L 176.660156 307.269531 L 165.253906 295.175781 Z M 188.066406 308.863281 " fill-opacity="1" fill-rule="nonzero"/><path fill="#ffffff" d="M 240.078125 308.863281 L 262.894531 295.175781 L 251.484375 307.269531 L 240.078125 319.359375 L 228.671875 307.269531 L 217.265625 295.175781 Z M 240.078125 308.863281 " fill-opacity="1" fill-rule="nonzero"/><path fill="#ffffff" d="M 165.253906 338.75 L 188.066406 325.0625 L 165.253906 349.242188 L 142.441406 325.0625 Z M 165.253906 338.75 " fill-opacity="1" fill-rule="nonzero"/><path fill="#ffffff" d="M 214.300781 338.75 L 237.113281 325.0625 L 214.300781 349.242188 L 191.488281 325.0625 Z M 214.300781 338.75 " fill-opacity="1" fill-rule="nonzero"/><path fill="#ffffff" d="M 205.859375 221.71875 L 187.609375 217.613281 L 169.359375 221.71875 L 170.273438 222.402344 L 169.359375 222.402344 L 187.609375 247.042969 L 205.859375 222.402344 L 204.949219 222.402344 Z M 205.859375 221.71875 " fill-opacity="1" fill-rule="nonzero"/><path fill="#ffffff" d="M 182.820312 180.425781 C 182.820312 181.980469 182.742188 183.53125 182.589844 185.078125 C 182.4375 186.625 182.210938 188.160156 181.90625 189.683594 C 181.605469 191.210938 181.226562 192.714844 180.777344 194.203125 C 180.324219 195.6875 179.800781 197.152344 179.207031 198.585938 C 178.613281 200.023438 177.949219 201.425781 177.214844 202.796875 C 176.484375 204.167969 175.683594 205.496094 174.820312 206.789062 C 173.957031 208.082031 173.035156 209.328125 172.046875 210.53125 C 171.0625 211.730469 170.019531 212.882812 168.921875 213.980469 C 167.820312 215.078125 166.671875 216.121094 165.46875 217.109375 C 164.269531 218.09375 163.023438 219.019531 161.730469 219.882812 C 160.4375 220.746094 159.105469 221.542969 157.734375 222.277344 C 156.367188 223.007812 154.960938 223.671875 153.527344 224.265625 C 152.089844 224.863281 150.628906 225.382812 149.140625 225.835938 C 147.65625 226.285156 146.148438 226.664062 144.625 226.96875 C 143.101562 227.269531 141.566406 227.496094 140.019531 227.648438 C 138.472656 227.800781 136.921875 227.878906 135.367188 227.878906 C 133.8125 227.878906 132.261719 227.800781 130.71875 227.648438 C 129.171875 227.496094 127.636719 227.269531 126.109375 226.96875 C 124.585938 226.664062 123.082031 226.285156 121.59375 225.835938 C 120.105469 225.382812 118.644531 224.859375 117.210938 224.265625 C 115.773438 223.671875 114.371094 223.007812 113 222.277344 C 111.628906 221.542969 110.296875 220.746094 109.003906 219.882812 C 107.714844 219.019531 106.464844 218.09375 105.265625 217.109375 C 104.0625 216.121094 102.914062 215.078125 101.816406 213.980469 C 100.714844 212.882812 99.671875 211.730469 98.6875 210.53125 C 97.703125 209.328125 96.777344 208.082031 95.914062 206.789062 C 95.050781 205.496094 94.253906 204.167969 93.519531 202.796875 C 92.789062 201.425781 92.125 200.023438 91.527344 198.585938 C 90.933594 197.152344 90.410156 195.6875 89.960938 194.203125 C 89.507812 192.714844 89.132812 191.210938 88.828125 189.683594 C 88.527344 188.160156 88.296875 186.625 88.144531 185.078125 C 87.992188 183.53125 87.917969 181.980469 87.917969 180.425781 C 87.917969 178.875 87.992188 177.324219 88.144531 175.777344 C 88.296875 174.230469 88.527344 172.695312 88.828125 171.171875 C 89.132812 169.644531 89.507812 168.140625 89.960938 166.652344 C 90.410156 165.167969 90.933594 163.703125 91.527344 162.269531 C 92.125 160.832031 92.789062 159.429688 93.519531 158.058594 C 94.253906 156.6875 95.050781 155.359375 95.914062 154.066406 C 96.777344 152.773438 97.703125 151.527344 98.6875 150.324219 C 99.671875 149.125 100.714844 147.972656 101.816406 146.875 C 102.914062 145.777344 104.0625 144.734375 105.265625 143.746094 C 106.464844 142.761719 107.714844 141.835938 109.003906 140.972656 C 110.296875 140.109375 111.628906 139.3125 113 138.578125 C 114.371094 137.847656 115.773438 137.183594 117.210938 136.589844 C 118.644531 135.992188 120.105469 135.472656 121.59375 135.019531 C 123.082031 134.570312 124.585938 134.191406 126.109375 133.886719 C 127.636719 133.585938 129.171875 133.359375 130.71875 133.207031 C 132.261719 133.054688 133.8125 132.976562 135.367188 132.976562 C 136.921875 132.976562 138.472656 133.054688 140.019531 133.207031 C 141.566406 133.359375 143.101562 133.585938 144.625 133.886719 C 146.148438 134.191406 147.65625 134.570312 149.140625 135.019531 C 150.628906 135.472656 152.089844 135.992188 153.527344 136.589844 C 154.960938 137.183594 156.367188 137.847656 157.734375 138.578125 C 159.105469 139.3125 160.4375 140.109375 161.730469 140.972656 C 163.023438 141.835938 164.269531 142.761719 165.46875 143.746094 C 166.671875 144.734375 167.820312 145.777344 168.921875 146.875 C 170.019531 147.972656 171.0625 149.125 172.046875 150.324219 C 173.035156 151.527344 173.957031 152.773438 174.820312 154.066406 C 175.683594 155.355469 176.484375 156.6875 177.214844 158.058594 C 177.949219 159.429688 178.613281 160.832031 179.207031 162.269531 C 179.800781 163.703125 180.324219 165.167969 180.777344 166.652344 C 181.226562 168.140625 181.605469 169.644531 181.90625 171.171875 C 182.210938 172.695312 182.4375 174.230469 182.589844 175.777344 C 182.742188 177.324219 182.820312 178.875 182.820312 180.425781 Z M 182.820312 180.425781 " fill-opacity="1" fill-rule="nonzero"/><path fill="#104f55" d="M 159.550781 180.425781 C 159.550781 181.21875 159.511719 182.007812 159.433594 182.796875 C 159.355469 183.585938 159.238281 184.367188 159.085938 185.144531 C 158.929688 185.921875 158.738281 186.6875 158.507812 187.445312 C 158.277344 188.203125 158.011719 188.949219 157.710938 189.679688 C 157.40625 190.414062 157.066406 191.128906 156.695312 191.828125 C 156.320312 192.523438 155.914062 193.203125 155.472656 193.863281 C 155.035156 194.519531 154.5625 195.15625 154.0625 195.769531 C 153.558594 196.378906 153.027344 196.964844 152.46875 197.527344 C 151.90625 198.085938 151.320312 198.617188 150.707031 199.121094 C 150.097656 199.621094 149.460938 200.09375 148.800781 200.535156 C 148.144531 200.972656 147.464844 201.378906 146.765625 201.753906 C 146.070312 202.128906 145.355469 202.464844 144.621094 202.769531 C 143.890625 203.070312 143.144531 203.339844 142.386719 203.566406 C 141.628906 203.796875 140.863281 203.992188 140.085938 204.144531 C 139.308594 204.300781 138.527344 204.414062 137.738281 204.492188 C 136.949219 204.570312 136.160156 204.609375 135.367188 204.609375 C 134.574219 204.609375 133.785156 204.570312 132.996094 204.492188 C 132.210938 204.414062 131.425781 204.300781 130.652344 204.144531 C 129.875 203.988281 129.105469 203.796875 128.347656 203.566406 C 127.589844 203.339844 126.847656 203.070312 126.113281 202.769531 C 125.382812 202.464844 124.667969 202.128906 123.96875 201.753906 C 123.269531 201.378906 122.59375 200.972656 121.933594 200.535156 C 121.273438 200.09375 120.640625 199.621094 120.027344 199.121094 C 119.414062 198.617188 118.828125 198.085938 118.269531 197.527344 C 117.707031 196.964844 117.175781 196.378906 116.675781 195.769531 C 116.171875 195.15625 115.703125 194.519531 115.261719 193.863281 C 114.820312 193.203125 114.414062 192.523438 114.042969 191.828125 C 113.667969 191.128906 113.328125 190.414062 113.027344 189.679688 C 112.722656 188.949219 112.457031 188.207031 112.226562 187.445312 C 111.996094 186.6875 111.804688 185.921875 111.652344 185.144531 C 111.496094 184.367188 111.378906 183.585938 111.300781 182.796875 C 111.226562 182.007812 111.1875 181.21875 111.1875 180.425781 C 111.1875 179.636719 111.226562 178.84375 111.300781 178.058594 C 111.378906 177.269531 111.496094 176.488281 111.652344 175.710938 C 111.804688 174.933594 111.996094 174.164062 112.226562 173.40625 C 112.457031 172.648438 112.722656 171.90625 113.027344 171.171875 C 113.328125 170.441406 113.667969 169.726562 114.042969 169.027344 C 114.414062 168.328125 114.820312 167.652344 115.261719 166.992188 C 115.703125 166.335938 116.171875 165.699219 116.675781 165.085938 C 117.175781 164.476562 117.707031 163.886719 118.269531 163.328125 C 118.828125 162.769531 119.414062 162.238281 120.027344 161.734375 C 120.640625 161.234375 121.273438 160.761719 121.933594 160.320312 C 122.59375 159.882812 123.269531 159.472656 123.96875 159.101562 C 124.667969 158.726562 125.382812 158.390625 126.113281 158.085938 C 126.847656 157.785156 127.589844 157.515625 128.347656 157.289062 C 129.105469 157.058594 129.875 156.863281 130.652344 156.710938 C 131.425781 156.554688 132.210938 156.441406 132.996094 156.363281 C 133.785156 156.285156 134.574219 156.246094 135.367188 156.246094 C 136.160156 156.246094 136.949219 156.285156 137.738281 156.363281 C 138.527344 156.441406 139.308594 156.554688 140.085938 156.710938 C 140.863281 156.863281 141.628906 157.058594 142.386719 157.289062 C 143.144531 157.515625 143.890625 157.785156 144.621094 158.085938 C 145.355469 158.390625 146.070312 158.726562 146.765625 159.101562 C 147.464844 159.472656 148.144531 159.882812 148.800781 160.320312 C 149.460938 160.761719 150.097656 161.234375 150.707031 161.734375 C 151.320312 162.238281 151.90625 162.769531 152.46875 163.328125 C 153.027344 163.886719 153.558594 164.476562 154.0625 165.085938 C 154.5625 165.699219 155.035156 166.335938 155.472656 166.992188 C 155.914062 167.652344 156.320312 168.328125 156.695312 169.027344 C 157.066406 169.726562 157.40625 170.441406 157.710938 171.171875 C 158.011719 171.90625 158.277344 172.648438 158.507812 173.40625 C 158.738281 174.164062 158.929688 174.933594 159.085938 175.710938 C 159.238281 176.488281 159.355469 177.269531 159.433594 178.058594 C 159.511719 178.84375 159.550781 179.636719 159.550781 180.425781 Z M 159.550781 180.425781 " fill-opacity="1" fill-rule="nonzero"/><path fill="#ffffff" d="M 151.566406 188.640625 C 151.566406 189.375 151.492188 190.101562 151.351562 190.820312 C 151.207031 191.539062 150.996094 192.238281 150.714844 192.917969 C 150.433594 193.597656 150.089844 194.242188 149.679688 194.851562 C 149.273438 195.460938 148.808594 196.027344 148.292969 196.542969 C 147.773438 197.0625 147.207031 197.527344 146.597656 197.933594 C 145.988281 198.34375 145.34375 198.6875 144.664062 198.96875 C 143.988281 199.25 143.289062 199.460938 142.566406 199.605469 C 141.847656 199.746094 141.121094 199.820312 140.386719 199.820312 C 139.652344 199.820312 138.925781 199.746094 138.207031 199.605469 C 137.484375 199.460938 136.789062 199.25 136.109375 198.96875 C 135.429688 198.6875 134.785156 198.34375 134.175781 197.933594 C 133.566406 197.527344 133 197.0625 132.484375 196.542969 C 131.964844 196.027344 131.5 195.460938 131.09375 194.851562 C 130.683594 194.242188 130.339844 193.597656 130.058594 192.917969 C 129.777344 192.238281 129.566406 191.539062 129.421875 190.820312 C 129.28125 190.101562 129.207031 189.375 129.207031 188.640625 C 129.207031 187.90625 129.28125 187.179688 129.421875 186.460938 C 129.566406 185.738281 129.777344 185.039062 130.058594 184.363281 C 130.339844 183.683594 130.683594 183.039062 131.09375 182.429688 C 131.5 181.820312 131.964844 181.253906 132.484375 180.734375 C 133 180.21875 133.566406 179.753906 134.175781 179.347656 C 134.785156 178.9375 135.429688 178.59375 136.109375 178.3125 C 136.789062 178.03125 137.484375 177.820312 138.207031 177.675781 C 138.925781 177.535156 139.652344 177.460938 140.386719 177.460938 C 141.121094 177.460938 141.847656 177.535156 142.566406 177.675781 C 143.289062 177.820312 143.988281 178.03125 144.664062 178.3125 C 145.34375 178.59375 145.988281 178.9375 146.597656 179.347656 C 147.207031 179.753906 147.773438 180.21875 148.292969 180.734375 C 148.808594 181.253906 149.273438 181.820312 149.679688 182.429688 C 150.089844 183.039062 150.433594 183.683594 150.714844 184.363281 C 150.996094 185.039062 151.207031 185.738281 151.351562 186.460938 C 151.492188 187.179688 151.566406 187.90625 151.566406 188.640625 Z M 151.566406 188.640625 " fill-opacity="1" fill-rule="nonzero"/><path fill="#ffffff" d="M 287.300781 180.425781 C 287.300781 181.980469 287.226562 183.53125 287.074219 185.078125 C 286.921875 186.625 286.695312 188.160156 286.390625 189.683594 C 286.085938 191.210938 285.710938 192.714844 285.257812 194.203125 C 284.808594 195.6875 284.285156 197.152344 283.691406 198.585938 C 283.097656 200.023438 282.433594 201.425781 281.699219 202.796875 C 280.96875 204.167969 280.167969 205.496094 279.304688 206.789062 C 278.441406 208.082031 277.515625 209.328125 276.53125 210.53125 C 275.546875 211.730469 274.503906 212.882812 273.40625 213.980469 C 272.304688 215.078125 271.15625 216.121094 269.953125 217.109375 C 268.753906 218.09375 267.507812 219.019531 266.214844 219.882812 C 264.921875 220.746094 263.589844 221.542969 262.21875 222.277344 C 260.847656 223.007812 259.445312 223.671875 258.011719 224.265625 C 256.574219 224.863281 255.113281 225.382812 253.625 225.835938 C 252.136719 226.285156 250.632812 226.664062 249.109375 226.96875 C 247.585938 227.269531 246.050781 227.496094 244.503906 227.648438 C 242.957031 227.800781 241.40625 227.878906 239.851562 227.878906 C 238.296875 227.878906 236.746094 227.800781 235.199219 227.648438 C 233.652344 227.496094 232.117188 227.269531 230.59375 226.96875 C 229.070312 226.664062 227.5625 226.285156 226.078125 225.835938 C 224.589844 225.382812 223.128906 224.859375 221.691406 224.265625 C 220.257812 223.671875 218.855469 223.007812 217.484375 222.277344 C 216.113281 221.542969 214.78125 220.746094 213.488281 219.882812 C 212.195312 219.019531 210.949219 218.09375 209.75 217.109375 C 208.546875 216.121094 207.398438 215.078125 206.296875 213.980469 C 205.199219 212.882812 204.15625 211.730469 203.171875 210.53125 C 202.183594 209.328125 201.261719 208.082031 200.398438 206.789062 C 199.535156 205.496094 198.734375 204.167969 198.003906 202.796875 C 197.269531 201.425781 196.605469 200.023438 196.011719 198.585938 C 195.417969 197.152344 194.894531 195.6875 194.445312 194.203125 C 193.992188 192.714844 193.617188 191.210938 193.3125 189.683594 C 193.007812 188.160156 192.78125 186.625 192.628906 185.078125 C 192.476562 183.53125 192.402344 181.980469 192.402344 180.425781 C 192.402344 178.875 192.476562 177.324219 192.628906 175.777344 C 192.78125 174.230469 193.007812 172.695312 193.3125 171.171875 C 193.617188 169.644531 193.992188 168.140625 194.445312 166.652344 C 194.894531 165.167969 195.417969 163.703125 196.011719 162.269531 C 196.605469 160.832031 197.269531 159.429688 198.003906 158.058594 C 198.734375 156.6875 199.535156 155.359375 200.398438 154.066406 C 201.261719 152.773438 202.183594 151.527344 203.171875 150.324219 C 204.15625 149.125 205.199219 147.972656 206.296875 146.875 C 207.398438 145.777344 208.546875 144.734375 209.75 143.746094 C 210.949219 142.761719 212.195312 141.835938 213.488281 140.972656 C 214.78125 140.109375 216.113281 139.3125 217.484375 138.578125 C 218.855469 137.847656 220.257812 137.183594 221.691406 136.589844 C 223.128906 135.992188 224.589844 135.472656 226.078125 135.019531 C 227.5625 134.570312 229.070312 134.191406 230.59375 133.886719 C 232.117188 133.585938 233.652344 133.359375 235.199219 133.207031 C 236.746094 133.054688 238.296875 132.976562 239.851562 132.976562 C 241.40625 132.976562 242.957031 133.054688 244.503906 133.207031 C 246.050781 133.359375 247.585938 133.585938 249.109375 133.886719 C 250.632812 134.191406 252.136719 134.570312 253.625 135.019531 C 255.113281 135.472656 256.574219 135.992188 258.011719 136.589844 C 259.445312 137.183594 260.847656 137.847656 262.21875 138.578125 C 263.589844 139.3125 264.921875 140.109375 266.214844 140.972656 C 267.507812 141.835938 268.753906 142.761719 269.953125 143.746094 C 271.15625 144.734375 272.304688 145.777344 273.40625 146.875 C 274.503906 147.972656 275.546875 149.125 276.53125 150.324219 C 277.515625 151.527344 278.441406 152.773438 279.304688 154.066406 C 280.167969 155.355469 280.96875 156.6875 281.699219 158.058594 C 282.433594 159.429688 283.097656 160.832031 283.691406 162.269531 C 284.285156 163.703125 284.808594 165.167969 285.257812 166.652344 C 285.710938 168.140625 286.085938 169.644531 286.390625 171.171875 C 286.695312 172.695312 286.921875 174.230469 287.074219 175.777344 C 287.226562 177.324219 287.300781 178.875 287.300781 180.425781 Z M 287.300781 180.425781 " fill-opacity="1" fill-rule="nonzero"/><path fill="#104f55" d="M 264.035156 180.425781 C 264.035156 181.21875 263.996094 182.007812 263.917969 182.796875 C 263.839844 183.585938 263.722656 184.367188 263.570312 185.144531 C 263.414062 185.921875 263.222656 186.6875 262.992188 187.445312 C 262.761719 188.203125 262.496094 188.949219 262.191406 189.679688 C 261.890625 190.414062 261.550781 191.128906 261.179688 191.828125 C 260.804688 192.523438 260.398438 193.203125 259.957031 193.863281 C 259.519531 194.519531 259.046875 195.15625 258.542969 195.769531 C 258.042969 196.378906 257.511719 196.964844 256.949219 197.527344 C 256.390625 198.085938 255.804688 198.617188 255.191406 199.121094 C 254.578125 199.621094 253.945312 200.09375 253.285156 200.535156 C 252.628906 200.972656 251.949219 201.378906 251.25 201.753906 C 250.550781 202.128906 249.835938 202.464844 249.105469 202.769531 C 248.375 203.070312 247.628906 203.339844 246.871094 203.566406 C 246.113281 203.796875 245.347656 203.992188 244.570312 204.144531 C 243.792969 204.300781 243.011719 204.414062 242.222656 204.492188 C 241.433594 204.570312 240.644531 204.609375 239.851562 204.609375 C 239.058594 204.609375 238.269531 204.570312 237.480469 204.492188 C 236.691406 204.414062 235.910156 204.300781 235.132812 204.144531 C 234.355469 203.988281 233.589844 203.796875 232.832031 203.566406 C 232.074219 203.339844 231.328125 203.070312 230.597656 202.769531 C 229.867188 202.464844 229.152344 202.128906 228.453125 201.753906 C 227.753906 201.378906 227.074219 200.972656 226.417969 200.535156 C 225.757812 200.09375 225.121094 199.621094 224.511719 199.121094 C 223.898438 198.617188 223.3125 198.085938 222.753906 197.527344 C 222.191406 196.964844 221.660156 196.378906 221.160156 195.769531 C 220.65625 195.15625 220.183594 194.519531 219.746094 193.863281 C 219.304688 193.203125 218.898438 192.523438 218.523438 191.828125 C 218.152344 191.128906 217.8125 190.414062 217.511719 189.679688 C 217.207031 188.949219 216.941406 188.207031 216.710938 187.445312 C 216.480469 186.6875 216.289062 185.921875 216.132812 185.144531 C 215.980469 184.367188 215.863281 183.585938 215.785156 182.796875 C 215.707031 182.007812 215.667969 181.21875 215.667969 180.425781 C 215.667969 179.636719 215.707031 178.84375 215.785156 178.058594 C 215.863281 177.269531 215.980469 176.488281 216.132812 175.710938 C 216.289062 174.933594 216.480469 174.164062 216.710938 173.40625 C 216.941406 172.648438 217.207031 171.90625 217.511719 171.171875 C 217.8125 170.441406 218.152344 169.726562 218.523438 169.027344 C 218.898438 168.328125 219.304688 167.652344 219.746094 166.992188 C 220.183594 166.335938 220.65625 165.699219 221.160156 165.085938 C 221.660156 164.476562 222.191406 163.886719 222.753906 163.328125 C 223.3125 162.769531 223.898438 162.238281 224.511719 161.734375 C 225.121094 161.234375 225.757812 160.761719 226.417969 160.320312 C 227.074219 159.882812 227.753906 159.472656 228.453125 159.101562 C 229.152344 158.726562 229.867188 158.390625 230.597656 158.085938 C 231.328125 157.785156 232.074219 157.515625 232.832031 157.289062 C 233.589844 157.058594 234.355469 156.863281 235.132812 156.710938 C 235.910156 156.554688 236.691406 156.441406 237.480469 156.363281 C 238.269531 156.285156 239.058594 156.246094 239.851562 156.246094 C 240.644531 156.246094 241.433594 156.285156 242.222656 156.363281 C 243.011719 156.441406 243.792969 156.554688 244.570312 156.710938 C 245.347656 156.863281 246.113281 157.058594 246.871094 157.289062 C 247.628906 157.515625 248.375 157.785156 249.105469 158.085938 C 249.835938 158.390625 250.550781 158.726562 251.25 159.101562 C 251.949219 159.472656 252.628906 159.882812 253.285156 160.320312 C 253.945312 160.761719 254.578125 161.234375 255.191406 161.734375 C 255.804688 162.238281 256.390625 162.769531 256.949219 163.328125 C 257.511719 163.886719 258.042969 164.476562 258.542969 165.085938 C 259.046875 165.699219 259.519531 166.335938 259.957031 166.992188 C 260.398438 167.652344 260.804688 168.328125 261.179688 169.027344 C 261.550781 169.726562 261.890625 170.441406 262.191406 171.171875 C 262.496094 171.90625 262.761719 172.648438 262.992188 173.40625 C 263.222656 174.164062 263.414062 174.933594 263.570312 175.710938 C 263.722656 176.488281 263.839844 177.269531 263.917969 178.058594 C 263.996094 178.84375 264.035156 179.636719 264.035156 180.425781 Z M 264.035156 180.425781 " fill-opacity="1" fill-rule="nonzero"/><path fill="#ffffff" d="M 246.011719 188.640625 C 246.011719 189.375 245.9375 190.101562 245.796875 190.820312 C 245.652344 191.539062 245.441406 192.238281 245.160156 192.917969 C 244.878906 193.597656 244.535156 194.242188 244.128906 194.851562 C 243.71875 195.460938 243.257812 196.027344 242.738281 196.542969 C 242.21875 197.0625 241.652344 197.527344 241.042969 197.933594 C 240.433594 198.34375 239.789062 198.6875 239.109375 198.96875 C 238.433594 199.25 237.734375 199.460938 237.011719 199.605469 C 236.292969 199.746094 235.566406 199.820312 234.832031 199.820312 C 234.097656 199.820312 233.371094 199.746094 232.652344 199.605469 C 231.933594 199.460938 231.234375 199.25 230.554688 198.96875 C 229.875 198.6875 229.234375 198.34375 228.621094 197.933594 C 228.011719 197.527344 227.449219 197.0625 226.929688 196.542969 C 226.410156 196.027344 225.945312 195.460938 225.539062 194.851562 C 225.128906 194.242188 224.785156 193.597656 224.503906 192.917969 C 224.222656 192.238281 224.011719 191.539062 223.867188 190.820312 C 223.726562 190.101562 223.652344 189.375 223.652344 188.640625 C 223.652344 187.90625 223.726562 187.179688 223.867188 186.460938 C 224.011719 185.738281 224.222656 185.039062 224.503906 184.363281 C 224.785156 183.683594 225.128906 183.039062 225.539062 182.429688 C 225.945312 181.820312 226.410156 181.253906 226.929688 180.734375 C 227.449219 180.21875 228.011719 179.753906 228.621094 179.347656 C 229.234375 178.9375 229.875 178.59375 230.554688 178.3125 C 231.234375 178.03125 231.933594 177.820312 232.652344 177.675781 C 233.371094 177.535156 234.097656 177.460938 234.832031 177.460938 C 235.566406 177.460938 236.292969 177.535156 237.011719 177.675781 C 237.734375 177.820312 238.433594 178.03125 239.109375 178.3125 C 239.789062 178.59375 240.433594 178.9375 241.042969 179.347656 C 241.652344 179.753906 242.21875 180.21875 242.738281 180.734375 C 243.257812 181.253906 243.71875 181.820312 244.128906 182.429688 C 244.535156 183.039062 244.878906 183.683594 245.160156 184.363281 C 245.441406 185.039062 245.652344 185.738281 245.796875 186.460938 C 245.9375 187.179688 246.011719 187.90625 246.011719 188.640625 Z M 246.011719 188.640625 " fill-opacity="1" fill-rule="nonzero"/><g clip-path="url(#9e3e416ef5)"><path fill="#104f55" d="M 331.101562 48.796875 L 190.574219 3.855469 L 44.117188 48.796875 L 42.746094 49.480469 L 44.117188 50.164062 L 106.394531 79.824219 C 106.394531 80.507812 106.167969 81.191406 106.167969 82.105469 L 106.167969 106.285156 C 128.980469 91.230469 157.953125 83.699219 187.382812 83.699219 C 214.757812 83.699219 245.097656 89.175781 268.597656 104.460938 L 268.597656 81.875 C 268.597656 81.417969 268.597656 80.734375 268.597656 80.277344 L 330.875 49.9375 L 332.242188 49.253906 Z M 331.101562 48.796875 " fill-opacity="1" fill-rule="nonzero"/></g><path fill="#ffffff" d="M 66.246094 48.570312 C 71.492188 49.480469 66.246094 58.835938 66.246094 58.835938 C 66.246094 58.835938 61.226562 49.480469 66.246094 48.570312 Z M 66.246094 48.570312 " fill-opacity="1" fill-rule="nonzero"/><path fill="#fca203" d="M 66.246094 58.605469 L 71.71875 127.046875 L 60.996094 127.046875 Z M 66.246094 58.605469 " fill-opacity="1" fill-rule="nonzero"/></svg>