<svg xmlns="http://www.w3.org/2000/svg" xmlns:xlink="http://www.w3.org/1999/xlink" width="500" zoomAndPan="magnify" viewBox="0 0 375 374.999991" height="500" preserveAspectRatio="xMidYMid meet" version="1.0"><defs><clipPath id="25e0af6f5a"><path d="M 150 338 L 187 338 L 187 356.492188 L 150 356.492188 Z M 150 338 " clip-rule="nonzero"/></clipPath><clipPath id="6edb093dfe"><path d="M 31.027344 114 L 78 114 L 78 144 L 31.027344 144 Z M 31.027344 114 " clip-rule="nonzero"/></clipPath><clipPath id="4c1da858fb"><path d="M 127 10.742188 L 145 10.742188 L 145 55 L 127 55 Z M 127 10.742188 " clip-rule="nonzero"/></clipPath></defs><path fill="#ffffff" d="M 138.335938 284.769531 C 138.519531 278.738281 136.691406 272.027344 133.59375 264.074219 C 131.394531 258.429688 124.054688 246.316406 112.105469 226.621094 L 109.179688 221.800781 C 105.527344 215.78125 103.667969 209.695312 102.082031 204.523438 C 101.730469 203.382812 101.394531 202.289062 101.054688 201.242188 C 96.5625 187.378906 95.113281 170.992188 99.546875 152.421875 C 110.214844 107.746094 140.933594 85.835938 188.609375 88.808594 C 239.824219 92.003906 271.117188 115.136719 276.8125 156.925781 C 279.027344 173.164062 274.414062 187.480469 267.804688 199.484375 C 264.4375 205.59375 261.484375 210.5 258.464844 213.308594 C 237.554688 232.765625 227.152344 243.359375 226.164062 246.160156 C 226.097656 246.347656 226.007812 246.527344 225.890625 246.691406 C 219.460938 255.8125 211.921875 272.667969 207.0625 291.074219 C 206.757812 292.238281 205.566406 292.929688 204.40625 292.625 C 203.246094 292.316406 202.554688 291.128906 202.859375 289.96875 C 207.800781 271.238281 215.515625 253.859375 222.335938 244.183594 L 222.0625 244.714844 C 223.515625 240.59375 235.265625 228.957031 255.503906 210.125 C 257.921875 207.875 260.5625 203.621094 263.996094 197.386719 C 270.316406 185.90625 274.554688 172.539062 272.503906 157.511719 C 267.179688 118.449219 238.246094 96.261719 188.335938 93.148438 C 142.644531 90.300781 113.921875 110.933594 103.777344 153.429688 C 99.535156 171.191406 100.933594 186.765625 105.191406 199.898438 C 105.542969 200.984375 105.890625 202.113281 106.238281 203.246094 C 107.835938 208.453125 109.5625 214.046875 112.898438 219.542969 L 115.824219 224.367188 C 127.617188 243.804688 135.265625 256.390625 137.644531 262.496094 C 140.796875 270.582031 142.890625 277.964844 142.683594 284.898438 C 142.644531 286.101562 141.644531 287.042969 140.445312 287.007812 C 139.242188 286.96875 138.300781 285.96875 138.335938 284.769531 Z M 138.335938 284.769531 " fill-opacity="1" fill-rule="nonzero"/><path fill="#ffffff" d="M 209.484375 298.070312 C 204.632812 292.71875 189.242188 286.511719 159.214844 285.132812 C 151.617188 284.785156 145.988281 285.71875 142.410156 287.121094 C 135.679688 289.757812 132.191406 292.433594 131.066406 294.585938 C 130.621094 295.433594 130.730469 297.308594 133.511719 301.105469 C 135.15625 303.351562 137.355469 304.898438 140.296875 305.832031 C 143.609375 306.886719 151.167969 308.027344 163.296875 309.234375 C 171.507812 310.050781 179.578125 310.519531 187.546875 310.285156 C 191.941406 310.160156 195.6875 309.695312 198.773438 308.777344 C 205.621094 306.738281 208.941406 305.027344 209.707031 304.273438 C 212.046875 301.96875 212.566406 300.960938 209.78125 298.132812 C 209.433594 297.777344 209.03125 297.402344 208.570312 297 C 207.664062 296.210938 207.566406 294.839844 208.355469 293.933594 C 209.140625 293.027344 210.515625 292.929688 211.421875 293.71875 C 211.953125 294.183594 212.441406 294.636719 212.878906 295.082031 C 217.855469 300.132812 216.246094 303.933594 212.757812 307.371094 C 211.09375 309.011719 206.683594 310.957031 200.011719 312.945312 C 196.425781 314.011719 192.261719 314.5 187.671875 314.632812 C 179.453125 314.871094 171.1875 314.386719 162.867188 313.558594 C 150.84375 312.367188 142.808594 311.191406 138.980469 309.976562 C 135.238281 308.789062 132.242188 306.730469 130 303.671875 C 127.296875 299.980469 125.421875 295.984375 127.210938 292.570312 C 129.136719 288.898438 134.003906 285.746094 140.820312 283.074219 C 145.140625 281.382812 151.425781 280.421875 159.414062 280.789062 C 189.4375 282.167969 206.542969 288.351562 212.707031 295.152344 C 213.511719 296.039062 213.445312 297.414062 212.558594 298.222656 C 211.667969 299.027344 210.292969 298.960938 209.484375 298.070312 Z M 209.484375 298.070312 " fill-opacity="1" fill-rule="nonzero"/><path fill="#ffffff" d="M 133.765625 303.054688 C 133.414062 303.054688 133.0625 303.136719 132.734375 303.316406 C 126.671875 306.582031 122.957031 309.691406 121.585938 312.632812 C 121.523438 312.761719 121.476562 312.894531 121.441406 313.035156 C 120.253906 317.882812 122.042969 321.363281 126.816406 323.476562 L 126.8125 323.476562 C 130.183594 325.042969 134.289062 326.1875 139.128906 326.90625 L 139.164062 326.914062 C 164.097656 330.171875 179.660156 332.078125 185.855469 332.628906 L 185.859375 332.628906 C 188.273438 332.839844 190.519531 332.945312 192.605469 332.945312 C 201.910156 332.945312 207.976562 330.84375 210.804688 326.640625 L 210.800781 326.640625 C 213.382812 323.386719 214.210938 320.300781 213.289062 317.382812 C 213.210938 317.136719 213.089844 316.910156 212.933594 316.707031 C 208.792969 311.363281 205.511719 308.492188 203.09375 308.089844 C 202.972656 308.070312 202.851562 308.0625 202.734375 308.0625 C 201.691406 308.0625 200.769531 308.816406 200.59375 309.878906 C 200.394531 311.0625 201.195312 312.183594 202.378906 312.378906 C 203.644531 312.589844 205.929688 314.808594 209.234375 319.03125 L 209.230469 319.03125 C 209.507812 320.421875 208.886719 322.066406 207.371094 323.96875 C 207.328125 324.023438 207.285156 324.082031 207.25 324.140625 C 205.308594 327.125 200.539062 328.617188 192.9375 328.617188 C 190.910156 328.617188 188.675781 328.511719 186.242188 328.296875 C 180.109375 327.75 164.617188 325.855469 139.769531 322.605469 L 139.765625 322.605469 C 135.328125 321.945312 131.609375 320.917969 128.613281 319.515625 L 128.574219 319.5 C 126.101562 318.40625 125.117188 316.671875 125.613281 314.296875 L 125.609375 314.296875 C 126.664062 312.261719 129.726562 309.878906 134.796875 307.144531 C 135.855469 306.574219 136.25 305.253906 135.679688 304.195312 C 135.285156 303.46875 134.539062 303.054688 133.765625 303.054688 Z M 133.765625 303.054688 " fill-opacity="1" fill-rule="nonzero"/><path fill="#ffffff" d="M 203.355469 330.546875 C 203.09375 336.539062 198.585938 340.523438 191.316406 342.195312 C 184.410156 343.785156 172.21875 343.078125 155.347656 341.382812 C 145.453125 340.386719 142.515625 339.171875 137.851562 335.835938 C 134.542969 333.472656 130.941406 330.796875 130.554688 324.804688 C 130.476562 323.605469 131.386719 322.570312 132.585938 322.496094 C 133.78125 322.417969 134.816406 323.328125 134.894531 324.523438 C 135.140625 328.347656 137.128906 329.976562 140.378906 332.300781 C 144.242188 335.0625 146.378906 336.109375 155.785156 337.054688 C 172.894531 338.777344 184.285156 339.351562 190.34375 337.957031 C 196.59375 336.519531 198.871094 333.613281 199.007812 330.359375 C 199.0625 329.160156 200.074219 328.230469 201.273438 328.28125 C 202.476562 328.332031 203.40625 329.347656 203.355469 330.546875 Z M 203.355469 330.546875 " fill-opacity="1" fill-rule="nonzero"/><g clip-path="url(#25e0af6f5a)"><path fill="#ffffff" d="M 152.195312 338.890625 C 151.863281 338.890625 151.523438 338.96875 151.207031 339.132812 C 150.136719 339.679688 149.714844 340.988281 150.261719 342.058594 C 155.132812 351.558594 160.890625 356.476562 167.535156 356.8125 L 167.589844 356.8125 C 167.71875 356.816406 167.851562 356.820312 167.980469 356.820312 C 171.140625 356.820312 173.875 355.839844 176.195312 353.882812 L 176.191406 353.882812 C 177.746094 352.710938 179.03125 351.5625 180.046875 350.4375 C 181.144531 349.246094 182.476562 347.582031 184.039062 345.453125 L 184.035156 345.453125 C 184.464844 344.945312 184.914062 344.5 185.375 344.117188 L 185.4375 344.066406 C 186.371094 343.308594 186.515625 341.941406 185.757812 341.007812 C 185.320312 340.46875 184.679688 340.191406 184.046875 340.191406 C 183.585938 340.191406 183.128906 340.339844 182.765625 340.636719 L 182.699219 340.6875 C 181.996094 341.257812 181.332031 341.917969 180.699219 342.664062 C 180.667969 342.699219 180.636719 342.742188 180.609375 342.78125 C 179.109375 344.828125 177.855469 346.398438 176.851562 347.488281 L 176.832031 347.507812 C 176 348.433594 174.90625 349.402344 173.5625 350.417969 C 173.527344 350.445312 173.488281 350.476562 173.453125 350.503906 C 171.929688 351.816406 170.101562 352.46875 167.96875 352.46875 C 167.890625 352.46875 167.8125 352.46875 167.734375 352.46875 L 167.730469 352.46875 C 162.765625 352.203125 158.234375 348.074219 154.132812 340.074219 C 153.746094 339.324219 152.984375 338.890625 152.195312 338.890625 Z M 152.195312 338.890625 " fill-opacity="1" fill-rule="nonzero"/></g><path fill="#ffffff" d="M 156.523438 281.832031 C 160.304688 262.167969 160.953125 249.167969 159.378906 242.351562 C 158.390625 238.054688 156.703125 231.773438 153.71875 223.625 L 153.777344 223.773438 L 137.398438 187.554688 C 137.359375 187.464844 137.324219 187.371094 137.296875 187.273438 C 135.632812 181.640625 135.445312 175.609375 137.261719 169.367188 C 141.1875 155.890625 149.683594 149.472656 161.816406 153.007812 C 162.523438 153.210938 163.234375 153.449219 163.957031 153.71875 C 171.1875 156.429688 176.542969 161.40625 179.019531 168.03125 C 182.050781 176.148438 180.710938 182.859375 174.960938 186.445312 C 174.695312 186.609375 174.398438 186.714844 174.089844 186.753906 C 168.757812 187.445312 165.386719 184.292969 164.371094 178.769531 C 163.261719 172.742188 163.898438 166.585938 166.597656 160.65625 C 170.820312 151.367188 180.070312 147.859375 192.269531 150.484375 C 202.664062 152.71875 208.640625 159.042969 210.652344 167.765625 C 211.710938 172.371094 210.582031 177.5 207.203125 183.097656 C 205.082031 186.609375 201.648438 190.449219 197.808594 188.128906 C 197.378906 187.867188 196.992188 187.546875 196.652344 187.1875 C 192.570312 182.894531 193.902344 176.527344 198.003906 170.027344 C 201.078125 165.160156 207.101562 161.488281 215.472656 161.582031 C 228.386719 161.726562 235.613281 171.003906 235.457031 184.941406 C 235.457031 185.117188 235.453125 185.28125 235.449219 185.457031 C 235.289062 192.292969 232.652344 198.835938 228.082031 203.851562 C 209.972656 223.730469 200.042969 235.410156 197.730469 239.96875 C 190.496094 254.222656 184.761719 267.601562 181.21875 284.28125 C 180.96875 285.457031 179.816406 286.207031 178.640625 285.957031 C 177.46875 285.707031 176.71875 284.554688 176.964844 283.378906 C 180.617188 266.183594 186.53125 252.425781 193.851562 238 C 196.507812 232.769531 207.007812 220.53125 224.867188 200.925781 C 228.734375 196.679688 230.964844 191.140625 231.101562 185.355469 C 231.105469 185.199219 231.109375 185.042969 231.109375 184.890625 C 231.246094 172.703125 225.332031 166.039062 215.425781 165.929688 C 208.414062 165.851562 203.875 168.875 201.679688 172.351562 C 197.722656 178.617188 198 182.292969 199.800781 184.191406 C 199.914062 184.308594 200.003906 184.375 200.058594 184.40625 C 199.867188 184.292969 200.894531 185.128906 203.480469 180.847656 C 206.492188 175.867188 207.140625 171.902344 206.414062 168.738281 C 204.796875 161.71875 200.15625 156.625 191.359375 154.734375 C 180.457031 152.390625 173.667969 155.609375 170.554688 162.457031 C 168.238281 167.550781 167.691406 172.800781 168.648438 177.980469 C 169.351562 181.804688 171.027344 182.765625 173.53125 182.441406 L 172.660156 182.753906 C 175.988281 180.679688 177.570312 176.574219 174.945312 169.550781 C 172.972656 164.273438 168.660156 160.125 162.429688 157.792969 C 161.808594 157.558594 161.195312 157.355469 160.601562 157.179688 C 151.511719 154.53125 144.925781 158.601562 141.4375 170.585938 C 139.863281 175.980469 140.027344 181.164062 141.464844 186.046875 L 141.363281 185.765625 L 157.738281 221.980469 C 157.761719 222.027344 157.78125 222.078125 157.800781 222.128906 C 160.855469 230.464844 162.589844 236.921875 163.617188 241.375 C 165.414062 249.171875 164.574219 262.988281 160.792969 282.652344 C 160.566406 283.832031 159.429688 284.605469 158.25 284.375 C 157.070312 284.148438 156.296875 283.011719 156.523438 281.832031 Z M 156.523438 281.832031 " fill-opacity="1" fill-rule="nonzero"/><path fill="#ffffff" d="M 246.863281 26.820312 C 246.160156 26.820312 245.46875 27.160156 245.050781 27.785156 C 236.605469 40.441406 232.0625 47.152344 231.429688 47.917969 L 231.425781 47.917969 C 231.359375 47.988281 231.300781 48.0625 231.246094 48.140625 C 229.789062 50.230469 226.453125 54.40625 221.238281 60.667969 L 221.195312 60.722656 C 220.191406 62.007812 219.21875 63.367188 218.273438 64.808594 L 218.269531 64.816406 C 217.613281 65.816406 217.894531 67.160156 218.894531 67.820312 C 219.261719 68.058594 219.675781 68.175781 220.085938 68.175781 C 220.792969 68.175781 221.492188 67.828125 221.910156 67.1875 L 221.914062 67.1875 C 222.777344 65.871094 223.667969 64.625 224.582031 63.449219 C 229.746094 57.25 233.117188 53.027344 234.695312 50.792969 L 234.691406 50.792969 C 234.722656 50.761719 234.75 50.726562 234.78125 50.691406 C 235.507812 49.8125 240.136719 42.980469 248.667969 30.199219 C 249.335938 29.203125 249.066406 27.851562 248.066406 27.183594 C 247.695312 26.9375 247.277344 26.820312 246.863281 26.820312 Z M 246.863281 26.820312 " fill-opacity="1" fill-rule="nonzero"/><path fill="#ffffff" d="M 326.773438 84.980469 C 326.429688 84.980469 326.085938 85.0625 325.761719 85.230469 C 315.582031 90.582031 304.671875 96.527344 293.042969 103.070312 L 293.035156 103.070312 C 287.644531 105.792969 283.628906 107.527344 280.984375 108.265625 C 279.828125 108.589844 279.152344 109.789062 279.472656 110.945312 C 279.742188 111.90625 280.617188 112.535156 281.566406 112.535156 C 281.761719 112.535156 281.957031 112.507812 282.152344 112.453125 C 285.085938 111.632812 289.398438 109.785156 295.089844 106.90625 C 295.117188 106.890625 295.144531 106.875 295.171875 106.859375 C 306.769531 100.339844 317.640625 94.414062 327.785156 89.082031 C 328.847656 88.523438 329.257812 87.207031 328.699219 86.144531 C 328.308594 85.402344 327.554688 84.980469 326.773438 84.980469 Z M 326.773438 84.980469 " fill-opacity="1" fill-rule="nonzero"/><path fill="#ffffff" d="M 310.179688 186.761719 C 308.335938 186.761719 306.535156 186.867188 304.769531 187.078125 C 303.578125 187.21875 302.726562 188.300781 302.867188 189.492188 C 302.996094 190.597656 303.9375 191.410156 305.023438 191.410156 C 305.109375 191.410156 305.195312 191.40625 305.28125 191.394531 C 306.875 191.207031 308.507812 191.109375 310.179688 191.109375 C 313.488281 191.109375 316.945312 191.480469 320.558594 192.222656 C 320.609375 192.230469 320.664062 192.242188 320.71875 192.25 C 323.226562 192.566406 332.96875 195.238281 349.949219 200.261719 C 350.15625 200.320312 350.363281 200.351562 350.566406 200.351562 C 351.503906 200.351562 352.371094 199.738281 352.648438 198.792969 C 352.992188 197.640625 352.332031 196.433594 351.183594 196.089844 C 334.191406 191.066406 324.257812 188.351562 321.375 187.949219 L 321.367188 187.949219 C 317.492188 187.15625 313.761719 186.761719 310.179688 186.761719 Z M 310.179688 186.761719 " fill-opacity="1" fill-rule="nonzero"/><path fill="#ffffff" d="M 270.730469 254.988281 C 270.359375 255.609375 269.855469 255.917969 269.222656 255.917969 C 268.945312 255.917969 268.640625 255.859375 268.316406 255.742188 L 268.320312 255.742188 C 268.542969 255.8125 268.769531 255.847656 268.992188 255.847656 C 269.667969 255.847656 270.3125 255.53125 270.726562 254.988281 Z M 268.726562 251.421875 C 267.921875 251.421875 267.324219 251.90625 266.941406 252.871094 L 266.941406 252.875 C 266.625 253.664062 266.761719 254.429688 267.339844 255.164062 C 268.136719 256.171875 273.59375 261.511719 283.714844 271.179688 L 283.710938 271.179688 L 297.695312 285.597656 C 298.121094 286.039062 298.6875 286.257812 299.253906 286.257812 C 299.800781 286.257812 300.347656 286.054688 300.769531 285.644531 C 301.628906 284.808594 301.652344 283.433594 300.816406 282.570312 L 286.777344 268.097656 L 286.71875 268.039062 C 277.367188 259.101562 272.105469 253.984375 270.933594 252.679688 L 270.925781 252.679688 C 270.695312 252.226562 270.304688 251.855469 269.796875 251.652344 C 269.40625 251.5 269.050781 251.421875 268.726562 251.421875 Z M 268.726562 251.421875 " fill-opacity="1" fill-rule="nonzero"/><path fill="#ffffff" d="M 67.695312 215.886719 C 67.386719 215.886719 67.070312 215.953125 66.769531 216.097656 C 55.222656 221.535156 45.050781 226.902344 36.246094 232.195312 C 35.21875 232.816406 34.886719 234.152344 35.503906 235.179688 C 35.914062 235.859375 36.632812 236.234375 37.371094 236.234375 C 37.75 236.234375 38.136719 236.132812 38.488281 235.921875 C 47.164062 230.707031 57.210938 225.40625 68.625 220.027344 C 69.710938 219.515625 70.175781 218.222656 69.664062 217.136719 C 69.292969 216.347656 68.511719 215.886719 67.695312 215.886719 Z M 67.695312 215.886719 " fill-opacity="1" fill-rule="nonzero"/><g clip-path="url(#6edb093dfe)"><path fill="#ffffff" d="M 33.714844 114 C 33.019531 114 32.339844 114.332031 31.917969 114.949219 C 31.242188 115.9375 31.496094 117.292969 32.484375 117.96875 C 34.902344 119.621094 40.910156 123.289062 50.507812 128.976562 C 50.539062 128.992188 50.570312 129.011719 50.601562 129.027344 C 62.085938 135.082031 68.257812 138.425781 69.117188 139.046875 C 69.210938 139.125 69.3125 139.191406 69.421875 139.25 C 70.742188 139.972656 72.046875 141.050781 73.335938 142.488281 C 73.765625 142.96875 74.359375 143.210938 74.953125 143.210938 C 75.472656 143.210938 75.988281 143.027344 76.40625 142.65625 C 77.300781 141.855469 77.375 140.480469 76.574219 139.585938 C 75 137.832031 73.363281 136.476562 71.664062 135.523438 L 71.660156 135.523438 C 70.589844 134.753906 64.273438 131.320312 52.710938 125.222656 L 52.707031 125.222656 C 43.199219 119.59375 37.277344 115.976562 34.941406 114.378906 C 34.566406 114.125 34.136719 114 33.714844 114 Z M 33.714844 114 " fill-opacity="1" fill-rule="nonzero"/></g><g clip-path="url(#4c1da858fb)"><path fill="#ffffff" d="M 129.832031 10.734375 C 129.585938 10.734375 129.335938 10.777344 129.089844 10.867188 C 127.960938 11.273438 127.378906 12.523438 127.785156 13.652344 C 130.792969 21.941406 132.53125 26.902344 133.011719 28.535156 C 133.019531 28.570312 133.03125 28.601562 133.042969 28.636719 C 133.769531 30.730469 135.347656 36.300781 137.769531 45.351562 L 137.792969 45.429688 C 138.539062 47.84375 139.480469 50.542969 140.609375 53.527344 C 140.941406 54.394531 141.765625 54.929688 142.644531 54.929688 C 142.898438 54.929688 143.160156 54.882812 143.414062 54.789062 C 144.539062 54.363281 145.101562 53.105469 144.675781 51.984375 C 143.589844 49.117188 142.6875 46.53125 141.972656 44.226562 C 139.558594 35.214844 137.960938 29.574219 137.183594 27.3125 C 136.679688 25.59375 134.910156 20.546875 131.875 12.167969 C 131.554688 11.285156 130.71875 10.734375 129.832031 10.734375 Z M 129.832031 10.734375 " fill-opacity="1" fill-rule="nonzero"/></g><path fill="#ffffff" d="M 244.703125 128.132812 C 244.058594 128.132812 243.421875 128.417969 242.992188 128.960938 C 242.25 129.90625 242.414062 131.273438 243.355469 132.015625 C 248.378906 135.964844 252.007812 140.496094 254.242188 145.613281 C 256.117188 150.34375 257.210938 157.800781 257.523438 167.988281 C 257.558594 169.164062 258.523438 170.09375 259.695312 170.09375 C 259.714844 170.09375 259.738281 170.09375 259.761719 170.09375 C 260.960938 170.058594 261.90625 169.054688 261.867188 167.855469 C 261.539062 157.113281 260.335938 149.140625 258.253906 143.9375 L 258.226562 143.875 C 255.699219 138.089844 251.636719 132.996094 246.042969 128.597656 C 245.644531 128.285156 245.171875 128.132812 244.703125 128.132812 Z M 244.703125 128.132812 " fill-opacity="1" fill-rule="nonzero"/><path fill="#ffffff" d="M 255.972656 188.546875 C 255.042969 188.546875 254.175781 189.15625 253.871094 190.152344 L 253.867188 190.152344 C 253.65625 190.820312 253.417969 191.488281 253.148438 192.148438 L 253.070312 192.371094 L 253.089844 192.3125 L 253.082031 192.3125 C 252.890625 192.808594 252.503906 193.613281 251.929688 194.734375 C 251.382812 195.804688 251.804688 197.113281 252.871094 197.660156 C 253.191406 197.824219 253.527344 197.902344 253.863281 197.902344 C 254.652344 197.902344 255.414062 197.46875 255.800781 196.71875 C 256.472656 195.410156 256.929688 194.433594 257.175781 193.789062 L 257.171875 193.789062 C 257.5 192.992188 257.789062 192.183594 258.042969 191.371094 L 258.066406 191.296875 L 258.066406 191.292969 C 258.371094 190.171875 257.734375 188.996094 256.613281 188.648438 C 256.398438 188.582031 256.183594 188.546875 255.972656 188.546875 Z M 255.972656 188.546875 " fill-opacity="1" fill-rule="nonzero"/></svg>