<svg xmlns="http://www.w3.org/2000/svg" xmlns:xlink="http://www.w3.org/1999/xlink" width="500" zoomAndPan="magnify" viewBox="0 0 375 374.999991" height="500" preserveAspectRatio="xMidYMid meet" version="1.0"><defs><clipPath id="b0e7a3e89d"><path d="M 85 113 L 290 113 L 290 323.167969 L 85 323.167969 Z M 85 113 " clip-rule="nonzero"/></clipPath><clipPath id="591b1f1e46"><path d="M 80.316406 51.667969 L 294.816406 51.667969 L 294.816406 128 L 80.316406 128 Z M 80.316406 51.667969 " clip-rule="nonzero"/></clipPath></defs><g clip-path="url(#b0e7a3e89d)"><path fill="#32746d" d="M 279.875 195.59375 C 279.875 194.242188 280.042969 192.726562 280.042969 191.375 C 280.042969 170.621094 271.609375 149.867188 255.914062 135.695312 C 237.863281 119.328125 211.203125 113.929688 187.414062 113.929688 C 140.503906 113.929688 94.949219 139.746094 94.949219 191.375 C 94.949219 192.726562 94.949219 194.074219 95.117188 195.59375 C 84.824219 199.8125 82.464844 226.808594 90.054688 257.515625 C 97.816406 289.238281 111.484375 314.210938 122.621094 311.511719 C 128.019531 310.160156 131.730469 302.734375 133.417969 291.9375 C 148.605469 310.496094 167.503906 323.320312 187.75 323.320312 C 207.996094 323.320312 226.894531 310.496094 242.082031 291.9375 C 243.261719 299.53125 245.453125 305.4375 248.492188 308.808594 C 249.335938 310.160156 250.515625 311.003906 251.527344 311.339844 C 251.699219 311.339844 251.867188 311.339844 252.203125 311.511719 C 252.371094 311.511719 252.542969 311.679688 252.878906 311.679688 C 264.015625 314.378906 277.683594 289.238281 285.441406 257.6875 C 292.699219 226.640625 290.335938 199.476562 279.875 195.59375 Z M 279.875 195.59375 " fill-opacity="1" fill-rule="nonzero"/></g><path fill="#ffffff" d="M 166.996094 252.625 L 183.867188 242.5 L 175.433594 251.441406 L 166.996094 260.386719 L 158.558594 251.441406 L 150.125 242.5 Z M 166.996094 252.625 " fill-opacity="1" fill-rule="nonzero"/><path fill="#ffffff" d="M 130.886719 252.625 L 147.761719 242.5 L 139.324219 251.441406 L 130.886719 260.386719 L 122.453125 251.441406 L 114.015625 242.5 Z M 130.886719 252.625 " fill-opacity="1" fill-rule="nonzero"/><path fill="#ffffff" d="M 208.503906 253.46875 L 225.375 243.34375 L 216.941406 252.285156 L 208.503906 261.230469 L 200.066406 252.285156 L 191.628906 243.34375 Z M 208.503906 253.46875 " fill-opacity="1" fill-rule="nonzero"/><path fill="#ffffff" d="M 244.273438 253.46875 L 261.144531 243.34375 L 252.710938 252.285156 L 244.273438 261.230469 L 235.835938 252.285156 L 227.402344 243.34375 Z M 244.273438 253.46875 " fill-opacity="1" fill-rule="nonzero"/><path fill="#ffffff" d="M 150.125 277.257812 L 166.996094 267.132812 L 158.558594 276.078125 L 150.125 285.019531 L 141.6875 276.078125 L 133.25 267.132812 Z M 150.125 277.257812 " fill-opacity="1" fill-rule="nonzero"/><path fill="#ffffff" d="M 187.917969 277.257812 L 204.792969 267.132812 L 196.355469 276.078125 L 187.917969 285.019531 L 179.480469 276.078125 L 171.046875 267.132812 Z M 187.917969 277.257812 " fill-opacity="1" fill-rule="nonzero"/><path fill="#ffffff" d="M 226.386719 277.257812 L 243.261719 267.132812 L 234.824219 276.078125 L 226.386719 285.019531 L 217.953125 276.078125 L 209.515625 267.132812 Z M 226.386719 277.257812 " fill-opacity="1" fill-rule="nonzero"/><path fill="#ffffff" d="M 171.046875 299.363281 L 187.917969 289.238281 L 179.480469 298.179688 L 171.046875 307.125 L 162.609375 298.179688 L 154.171875 289.238281 Z M 171.046875 299.363281 " fill-opacity="1" fill-rule="nonzero"/><path fill="#ffffff" d="M 207.320312 299.363281 L 224.195312 289.238281 L 215.757812 298.179688 L 207.320312 307.125 L 198.886719 298.179688 L 190.449219 289.238281 Z M 207.320312 299.363281 " fill-opacity="1" fill-rule="nonzero"/><path fill="#ffffff" d="M 201.078125 212.804688 L 187.582031 209.765625 L 174.082031 212.804688 L 174.757812 213.308594 L 174.082031 213.308594 L 180.832031 222.421875 L 187.582031 231.53125 L 194.328125 222.421875 L 201.078125 213.308594 L 200.402344 213.308594 Z M 201.078125 212.804688 " fill-opacity="1" fill-rule="nonzero"/><path fill="#ffffff" d="M 184.039062 182.265625 C 184.039062 183.414062 183.980469 184.558594 183.867188 185.703125 C 183.757812 186.847656 183.585938 187.984375 183.363281 189.109375 C 183.140625 190.238281 182.859375 191.351562 182.527344 192.453125 C 182.191406 193.550781 181.804688 194.632812 181.367188 195.695312 C 180.925781 196.757812 180.433594 197.792969 179.894531 198.808594 C 179.351562 199.820312 178.761719 200.808594 178.121094 201.761719 C 177.484375 202.71875 176.800781 203.640625 176.070312 204.527344 C 175.34375 205.417969 174.570312 206.269531 173.757812 207.082031 C 172.945312 207.894531 172.09375 208.664062 171.207031 209.394531 C 170.316406 210.121094 169.394531 210.804688 168.441406 211.445312 C 167.484375 212.082031 166.5 212.675781 165.484375 213.214844 C 164.472656 213.757812 163.433594 214.25 162.371094 214.6875 C 161.3125 215.128906 160.230469 215.515625 159.128906 215.847656 C 158.03125 216.183594 156.917969 216.460938 155.789062 216.683594 C 154.660156 216.910156 153.527344 217.078125 152.382812 217.191406 C 151.238281 217.304688 150.089844 217.359375 148.941406 217.359375 C 147.792969 217.359375 146.644531 217.304688 145.503906 217.191406 C 144.359375 217.078125 143.222656 216.910156 142.09375 216.683594 C 140.96875 216.460938 139.855469 216.183594 138.753906 215.847656 C 137.65625 215.515625 136.574219 215.128906 135.511719 214.6875 C 134.449219 214.25 133.410156 213.757812 132.398438 213.214844 C 131.382812 212.675781 130.398438 212.082031 129.445312 211.445312 C 128.488281 210.804688 127.566406 210.121094 126.679688 209.394531 C 125.789062 208.664062 124.9375 207.894531 124.125 207.082031 C 123.3125 206.269531 122.542969 205.417969 121.8125 204.527344 C 121.082031 203.640625 120.398438 202.71875 119.761719 201.761719 C 119.121094 200.808594 118.53125 199.820312 117.992188 198.808594 C 117.449219 197.792969 116.957031 196.757812 116.519531 195.695312 C 116.078125 194.632812 115.691406 193.550781 115.359375 192.453125 C 115.023438 191.351562 114.746094 190.238281 114.519531 189.109375 C 114.296875 187.984375 114.128906 186.847656 114.015625 185.703125 C 113.902344 184.558594 113.847656 183.414062 113.847656 182.265625 C 113.847656 181.113281 113.902344 179.96875 114.015625 178.824219 C 114.128906 177.679688 114.296875 176.546875 114.519531 175.417969 C 114.746094 174.289062 115.023438 173.175781 115.359375 172.078125 C 115.691406 170.976562 116.078125 169.894531 116.519531 168.832031 C 116.957031 167.773438 117.449219 166.734375 117.992188 165.71875 C 118.53125 164.707031 119.121094 163.722656 119.761719 162.765625 C 120.398438 161.8125 121.082031 160.886719 121.8125 160 C 122.542969 159.113281 123.3125 158.261719 124.125 157.449219 C 124.9375 156.636719 125.789062 155.863281 126.679688 155.136719 C 127.566406 154.40625 128.488281 153.722656 129.445312 153.082031 C 130.398438 152.445312 131.382812 151.855469 132.398438 151.3125 C 133.410156 150.769531 134.449219 150.28125 135.511719 149.839844 C 136.574219 149.402344 137.65625 149.015625 138.753906 148.679688 C 139.855469 148.347656 140.96875 148.066406 142.09375 147.84375 C 143.222656 147.617188 144.359375 147.449219 145.503906 147.339844 C 146.644531 147.226562 147.792969 147.167969 148.941406 147.167969 C 150.089844 147.167969 151.238281 147.226562 152.382812 147.339844 C 153.527344 147.449219 154.660156 147.617188 155.789062 147.84375 C 156.917969 148.066406 158.03125 148.347656 159.128906 148.679688 C 160.230469 149.015625 161.3125 149.402344 162.371094 149.839844 C 163.433594 150.28125 164.472656 150.769531 165.484375 151.3125 C 166.5 151.855469 167.484375 152.445312 168.441406 153.082031 C 169.394531 153.722656 170.316406 154.40625 171.207031 155.136719 C 172.09375 155.863281 172.945312 156.636719 173.757812 157.449219 C 174.570312 158.261719 175.34375 159.113281 176.070312 160 C 176.800781 160.886719 177.484375 161.8125 178.121094 162.765625 C 178.761719 163.722656 179.351562 164.707031 179.894531 165.71875 C 180.433594 166.734375 180.925781 167.773438 181.367188 168.832031 C 181.804688 169.894531 182.191406 170.976562 182.527344 172.078125 C 182.859375 173.175781 183.140625 174.289062 183.363281 175.417969 C 183.585938 176.546875 183.757812 177.679688 183.867188 178.824219 C 183.980469 179.96875 184.039062 181.113281 184.039062 182.265625 Z M 184.039062 182.265625 " fill-opacity="1" fill-rule="nonzero"/><path fill="#104f55" d="M 166.828125 182.265625 C 166.828125 182.851562 166.796875 183.433594 166.742188 184.015625 C 166.683594 184.601562 166.597656 185.179688 166.484375 185.753906 C 166.371094 186.328125 166.226562 186.894531 166.058594 187.457031 C 165.886719 188.015625 165.691406 188.566406 165.464844 189.109375 C 165.242188 189.648438 164.992188 190.179688 164.714844 190.695312 C 164.4375 191.210938 164.136719 191.714844 163.8125 192.199219 C 163.488281 192.6875 163.140625 193.15625 162.769531 193.609375 C 162.394531 194.0625 162.003906 194.496094 161.589844 194.910156 C 161.175781 195.324219 160.742188 195.71875 160.289062 196.089844 C 159.835938 196.460938 159.367188 196.808594 158.878906 197.136719 C 158.390625 197.460938 157.890625 197.761719 157.375 198.039062 C 156.855469 198.3125 156.328125 198.5625 155.785156 198.789062 C 155.246094 199.011719 154.695312 199.210938 154.132812 199.378906 C 153.574219 199.550781 153.007812 199.691406 152.429688 199.804688 C 151.855469 199.921875 151.277344 200.007812 150.695312 200.0625 C 150.113281 200.121094 149.527344 200.148438 148.941406 200.148438 C 148.355469 200.148438 147.773438 200.121094 147.1875 200.0625 C 146.605469 200.007812 146.027344 199.921875 145.453125 199.804688 C 144.878906 199.691406 144.3125 199.550781 143.75 199.378906 C 143.191406 199.210938 142.640625 199.011719 142.097656 198.789062 C 141.554688 198.5625 141.027344 198.3125 140.511719 198.039062 C 139.996094 197.761719 139.492188 197.460938 139.003906 197.136719 C 138.519531 196.808594 138.046875 196.460938 137.597656 196.089844 C 137.144531 195.71875 136.710938 195.324219 136.296875 194.910156 C 135.882812 194.496094 135.488281 194.0625 135.117188 193.609375 C 134.746094 193.15625 134.398438 192.6875 134.070312 192.199219 C 133.746094 191.714844 133.445312 191.210938 133.167969 190.695312 C 132.894531 190.179688 132.640625 189.648438 132.417969 189.109375 C 132.195312 188.566406 131.996094 188.015625 131.828125 187.457031 C 131.65625 186.894531 131.515625 186.328125 131.402344 185.753906 C 131.285156 185.179688 131.199219 184.601562 131.144531 184.015625 C 131.085938 183.433594 131.058594 182.851562 131.058594 182.265625 C 131.058594 181.679688 131.085938 181.09375 131.144531 180.511719 C 131.199219 179.929688 131.285156 179.351562 131.402344 178.773438 C 131.515625 178.199219 131.65625 177.632812 131.828125 177.074219 C 131.996094 176.511719 132.195312 175.960938 132.417969 175.421875 C 132.640625 174.878906 132.894531 174.351562 133.167969 173.832031 C 133.445312 173.316406 133.746094 172.816406 134.070312 172.328125 C 134.398438 171.839844 134.746094 171.371094 135.117188 170.917969 C 135.488281 170.464844 135.882812 170.03125 136.296875 169.617188 C 136.710938 169.203125 137.144531 168.8125 137.597656 168.4375 C 138.046875 168.066406 138.519531 167.71875 139.003906 167.394531 C 139.492188 167.066406 139.996094 166.765625 140.511719 166.492188 C 141.027344 166.214844 141.554688 165.964844 142.097656 165.742188 C 142.640625 165.515625 143.191406 165.320312 143.75 165.148438 C 144.3125 164.980469 144.878906 164.835938 145.453125 164.722656 C 146.027344 164.609375 146.605469 164.523438 147.1875 164.464844 C 147.773438 164.40625 148.355469 164.378906 148.941406 164.378906 C 149.527344 164.378906 150.113281 164.40625 150.695312 164.464844 C 151.277344 164.523438 151.855469 164.609375 152.429688 164.722656 C 153.007812 164.835938 153.574219 164.980469 154.132812 165.148438 C 154.695312 165.320312 155.246094 165.515625 155.785156 165.742188 C 156.328125 165.964844 156.855469 166.214844 157.375 166.492188 C 157.890625 166.765625 158.390625 167.066406 158.878906 167.394531 C 159.367188 167.71875 159.835938 168.066406 160.289062 168.4375 C 160.742188 168.8125 161.175781 169.203125 161.589844 169.617188 C 162.003906 170.03125 162.394531 170.464844 162.765625 170.917969 C 163.140625 171.371094 163.488281 171.839844 163.8125 172.328125 C 164.136719 172.816406 164.4375 173.316406 164.714844 173.832031 C 164.992188 174.351562 165.242188 174.878906 165.464844 175.421875 C 165.691406 175.960938 165.886719 176.511719 166.058594 177.074219 C 166.226562 177.632812 166.371094 178.199219 166.484375 178.773438 C 166.597656 179.351562 166.683594 179.929688 166.742188 180.511719 C 166.796875 181.09375 166.828125 181.679688 166.828125 182.265625 Z M 166.828125 182.265625 " fill-opacity="1" fill-rule="nonzero"/><path fill="#ffffff" d="M 160.921875 188.339844 C 160.921875 188.882812 160.867188 189.417969 160.761719 189.953125 C 160.65625 190.484375 160.5 191 160.292969 191.503906 C 160.085938 192.003906 159.832031 192.480469 159.527344 192.933594 C 159.226562 193.382812 158.882812 193.800781 158.5 194.183594 C 158.117188 194.570312 157.699219 194.910156 157.246094 195.214844 C 156.796875 195.515625 156.320312 195.769531 155.816406 195.976562 C 155.316406 196.183594 154.800781 196.339844 154.265625 196.449219 C 153.734375 196.554688 153.195312 196.605469 152.652344 196.605469 C 152.109375 196.605469 151.574219 196.554688 151.042969 196.449219 C 150.507812 196.339844 149.992188 196.183594 149.492188 195.976562 C 148.988281 195.769531 148.511719 195.515625 148.0625 195.214844 C 147.609375 194.910156 147.191406 194.570312 146.808594 194.183594 C 146.425781 193.800781 146.082031 193.382812 145.78125 192.933594 C 145.476562 192.480469 145.222656 192.003906 145.015625 191.503906 C 144.808594 191 144.652344 190.484375 144.546875 189.953125 C 144.4375 189.417969 144.386719 188.882812 144.386719 188.339844 C 144.386719 187.796875 144.4375 187.257812 144.546875 186.726562 C 144.652344 186.191406 144.808594 185.675781 145.015625 185.175781 C 145.222656 184.671875 145.476562 184.195312 145.78125 183.746094 C 146.082031 183.292969 146.425781 182.875 146.808594 182.492188 C 147.191406 182.109375 147.609375 181.765625 148.0625 181.464844 C 148.511719 181.164062 148.988281 180.90625 149.492188 180.699219 C 149.992188 180.492188 150.507812 180.335938 151.042969 180.230469 C 151.574219 180.125 152.109375 180.070312 152.652344 180.070312 C 153.195312 180.070312 153.734375 180.125 154.265625 180.230469 C 154.800781 180.335938 155.316406 180.492188 155.816406 180.699219 C 156.320312 180.90625 156.796875 181.164062 157.246094 181.464844 C 157.699219 181.765625 158.117188 182.109375 158.5 182.492188 C 158.882812 182.875 159.226562 183.292969 159.527344 183.746094 C 159.832031 184.195312 160.085938 184.671875 160.292969 185.175781 C 160.5 185.675781 160.65625 186.191406 160.761719 186.726562 C 160.867188 187.257812 160.921875 187.796875 160.921875 188.339844 Z M 160.921875 188.339844 " fill-opacity="1" fill-rule="nonzero"/><path fill="#ffffff" d="M 261.316406 182.265625 C 261.316406 183.414062 261.257812 184.558594 261.144531 185.703125 C 261.035156 186.847656 260.863281 187.984375 260.640625 189.109375 C 260.417969 190.238281 260.136719 191.351562 259.804688 192.453125 C 259.46875 193.550781 259.082031 194.632812 258.644531 195.695312 C 258.203125 196.757812 257.714844 197.792969 257.171875 198.808594 C 256.628906 199.820312 256.039062 200.808594 255.402344 201.761719 C 254.761719 202.71875 254.078125 203.640625 253.347656 204.527344 C 252.621094 205.417969 251.847656 206.269531 251.035156 207.082031 C 250.222656 207.894531 249.371094 208.664062 248.484375 209.394531 C 247.59375 210.121094 246.671875 210.804688 245.71875 211.445312 C 244.761719 212.082031 243.777344 212.675781 242.761719 213.214844 C 241.75 213.757812 240.710938 214.25 239.648438 214.6875 C 238.589844 215.128906 237.507812 215.515625 236.40625 215.847656 C 235.308594 216.183594 234.195312 216.460938 233.066406 216.683594 C 231.9375 216.910156 230.804688 217.078125 229.660156 217.191406 C 228.515625 217.304688 227.367188 217.359375 226.21875 217.359375 C 225.070312 217.359375 223.921875 217.304688 222.78125 217.191406 C 221.636719 217.078125 220.5 216.910156 219.371094 216.683594 C 218.246094 216.460938 217.132812 216.183594 216.03125 215.847656 C 214.933594 215.515625 213.851562 215.128906 212.789062 214.6875 C 211.726562 214.25 210.691406 213.757812 209.675781 213.214844 C 208.660156 212.675781 207.675781 212.082031 206.722656 211.445312 C 205.765625 210.804688 204.84375 210.121094 203.957031 209.394531 C 203.066406 208.664062 202.214844 207.894531 201.402344 207.082031 C 200.589844 206.269531 199.820312 205.417969 199.089844 204.527344 C 198.359375 203.640625 197.675781 202.71875 197.039062 201.761719 C 196.398438 200.808594 195.808594 199.820312 195.269531 198.808594 C 194.726562 197.792969 194.234375 196.757812 193.796875 195.695312 C 193.355469 194.632812 192.96875 193.550781 192.636719 192.453125 C 192.300781 191.351562 192.023438 190.238281 191.796875 189.109375 C 191.574219 187.984375 191.40625 186.847656 191.292969 185.703125 C 191.179688 184.558594 191.125 183.414062 191.125 182.265625 C 191.125 181.113281 191.179688 179.96875 191.292969 178.824219 C 191.40625 177.679688 191.574219 176.546875 191.796875 175.417969 C 192.023438 174.289062 192.300781 173.175781 192.636719 172.078125 C 192.96875 170.976562 193.355469 169.894531 193.796875 168.832031 C 194.234375 167.773438 194.726562 166.734375 195.269531 165.71875 C 195.808594 164.707031 196.398438 163.722656 197.039062 162.765625 C 197.675781 161.8125 198.359375 160.886719 199.089844 160 C 199.820312 159.113281 200.589844 158.261719 201.402344 157.449219 C 202.214844 156.636719 203.066406 155.863281 203.957031 155.136719 C 204.84375 154.40625 205.765625 153.722656 206.722656 153.082031 C 207.675781 152.445312 208.660156 151.855469 209.675781 151.3125 C 210.691406 150.769531 211.726562 150.28125 212.789062 149.839844 C 213.851562 149.402344 214.933594 149.015625 216.03125 148.679688 C 217.132812 148.347656 218.246094 148.066406 219.371094 147.84375 C 220.5 147.617188 221.636719 147.449219 222.78125 147.339844 C 223.921875 147.226562 225.070312 147.167969 226.21875 147.167969 C 227.367188 147.167969 228.515625 147.226562 229.660156 147.339844 C 230.804688 147.449219 231.9375 147.617188 233.066406 147.84375 C 234.195312 148.066406 235.308594 148.347656 236.40625 148.679688 C 237.507812 149.015625 238.589844 149.402344 239.648438 149.839844 C 240.710938 150.28125 241.75 150.769531 242.761719 151.3125 C 243.777344 151.855469 244.761719 152.445312 245.71875 153.082031 C 246.671875 153.722656 247.59375 154.40625 248.484375 155.136719 C 249.371094 155.863281 250.222656 156.636719 251.035156 157.449219 C 251.847656 158.261719 252.621094 159.113281 253.347656 160 C 254.078125 160.886719 254.761719 161.8125 255.402344 162.765625 C 256.039062 163.722656 256.628906 164.707031 257.171875 165.71875 C 257.714844 166.734375 258.203125 167.773438 258.644531 168.832031 C 259.082031 169.894531 259.46875 170.976562 259.804688 172.078125 C 260.136719 173.175781 260.417969 174.289062 260.640625 175.417969 C 260.863281 176.546875 261.035156 177.679688 261.144531 178.824219 C 261.257812 179.96875 261.316406 181.113281 261.316406 182.265625 Z M 261.316406 182.265625 " fill-opacity="1" fill-rule="nonzero"/><path fill="#104f55" d="M 244.105469 182.265625 C 244.105469 182.851562 244.074219 183.433594 244.019531 184.015625 C 243.960938 184.601562 243.875 185.179688 243.761719 185.753906 C 243.648438 186.328125 243.503906 186.894531 243.335938 187.457031 C 243.164062 188.015625 242.96875 188.566406 242.742188 189.109375 C 242.519531 189.648438 242.269531 190.179688 241.992188 190.695312 C 241.71875 191.210938 241.417969 191.714844 241.089844 192.199219 C 240.765625 192.6875 240.417969 193.15625 240.046875 193.609375 C 239.671875 194.0625 239.28125 194.496094 238.867188 194.910156 C 238.453125 195.324219 238.019531 195.71875 237.566406 196.089844 C 237.113281 196.460938 236.644531 196.808594 236.15625 197.136719 C 235.667969 197.460938 235.167969 197.761719 234.652344 198.039062 C 234.132812 198.3125 233.605469 198.5625 233.0625 198.789062 C 232.523438 199.011719 231.972656 199.210938 231.410156 199.378906 C 230.851562 199.550781 230.285156 199.691406 229.707031 199.804688 C 229.132812 199.921875 228.554688 200.007812 227.972656 200.0625 C 227.390625 200.121094 226.804688 200.148438 226.21875 200.148438 C 225.632812 200.148438 225.050781 200.121094 224.464844 200.0625 C 223.882812 200.007812 223.304688 199.921875 222.730469 199.804688 C 222.15625 199.691406 221.589844 199.550781 221.027344 199.378906 C 220.46875 199.210938 219.917969 199.011719 219.375 198.789062 C 218.835938 198.5625 218.304688 198.3125 217.789062 198.039062 C 217.273438 197.761719 216.769531 197.460938 216.28125 197.136719 C 215.796875 196.808594 215.328125 196.460938 214.875 196.089844 C 214.421875 195.71875 213.988281 195.324219 213.574219 194.910156 C 213.160156 194.496094 212.765625 194.0625 212.394531 193.609375 C 212.023438 193.15625 211.675781 192.6875 211.347656 192.199219 C 211.023438 191.714844 210.722656 191.210938 210.445312 190.695312 C 210.171875 190.179688 209.921875 189.648438 209.695312 189.109375 C 209.472656 188.566406 209.273438 188.015625 209.105469 187.457031 C 208.933594 186.894531 208.792969 186.328125 208.679688 185.753906 C 208.5625 185.179688 208.476562 184.601562 208.421875 184.015625 C 208.363281 183.433594 208.335938 182.851562 208.335938 182.265625 C 208.335938 181.679688 208.363281 181.09375 208.421875 180.511719 C 208.476562 179.929688 208.5625 179.351562 208.679688 178.773438 C 208.792969 178.199219 208.933594 177.632812 209.105469 177.074219 C 209.273438 176.511719 209.472656 175.960938 209.695312 175.421875 C 209.921875 174.878906 210.171875 174.351562 210.445312 173.832031 C 210.722656 173.316406 211.023438 172.816406 211.347656 172.328125 C 211.675781 171.839844 212.023438 171.371094 212.394531 170.917969 C 212.765625 170.464844 213.160156 170.03125 213.574219 169.617188 C 213.988281 169.203125 214.421875 168.8125 214.875 168.4375 C 215.328125 168.066406 215.796875 167.71875 216.28125 167.394531 C 216.769531 167.066406 217.273438 166.765625 217.789062 166.492188 C 218.304688 166.214844 218.835938 165.964844 219.375 165.742188 C 219.917969 165.515625 220.46875 165.320312 221.027344 165.148438 C 221.589844 164.980469 222.15625 164.835938 222.730469 164.722656 C 223.304688 164.609375 223.882812 164.523438 224.464844 164.464844 C 225.050781 164.40625 225.632812 164.378906 226.21875 164.378906 C 226.804688 164.378906 227.390625 164.40625 227.972656 164.464844 C 228.554688 164.523438 229.132812 164.609375 229.707031 164.722656 C 230.285156 164.835938 230.851562 164.980469 231.410156 165.148438 C 231.972656 165.320312 232.523438 165.515625 233.0625 165.742188 C 233.605469 165.964844 234.132812 166.214844 234.652344 166.492188 C 235.167969 166.765625 235.667969 167.066406 236.15625 167.394531 C 236.644531 167.71875 237.113281 168.066406 237.566406 168.4375 C 238.019531 168.8125 238.453125 169.203125 238.867188 169.617188 C 239.28125 170.03125 239.671875 170.464844 240.046875 170.917969 C 240.417969 171.371094 240.765625 171.839844 241.089844 172.328125 C 241.417969 172.816406 241.71875 173.316406 241.992188 173.832031 C 242.269531 174.351562 242.519531 174.878906 242.742188 175.421875 C 242.96875 175.960938 243.164062 176.511719 243.335938 177.074219 C 243.503906 177.632812 243.648438 178.199219 243.761719 178.773438 C 243.875 179.351562 243.960938 179.929688 244.019531 180.511719 C 244.074219 181.09375 244.105469 181.679688 244.105469 182.265625 Z M 244.105469 182.265625 " fill-opacity="1" fill-rule="nonzero"/><path fill="#ffffff" d="M 230.773438 188.339844 C 230.773438 188.882812 230.722656 189.417969 230.617188 189.953125 C 230.511719 190.484375 230.355469 191 230.144531 191.503906 C 229.9375 192.003906 229.683594 192.480469 229.382812 192.933594 C 229.082031 193.382812 228.738281 193.800781 228.355469 194.183594 C 227.96875 194.570312 227.550781 194.910156 227.101562 195.214844 C 226.648438 195.515625 226.171875 195.769531 225.671875 195.976562 C 225.171875 196.183594 224.652344 196.339844 224.121094 196.449219 C 223.589844 196.554688 223.050781 196.605469 222.507812 196.605469 C 221.964844 196.605469 221.425781 196.554688 220.894531 196.449219 C 220.363281 196.339844 219.84375 196.183594 219.34375 195.976562 C 218.84375 195.769531 218.367188 195.515625 217.914062 195.214844 C 217.464844 194.910156 217.046875 194.570312 216.660156 194.183594 C 216.277344 193.800781 215.933594 193.382812 215.632812 192.933594 C 215.332031 192.480469 215.078125 192.003906 214.871094 191.503906 C 214.660156 191 214.503906 190.484375 214.398438 189.953125 C 214.292969 189.417969 214.238281 188.882812 214.238281 188.339844 C 214.238281 187.796875 214.292969 187.257812 214.398438 186.726562 C 214.503906 186.191406 214.660156 185.675781 214.871094 185.175781 C 215.078125 184.671875 215.332031 184.195312 215.632812 183.746094 C 215.933594 183.292969 216.277344 182.875 216.660156 182.492188 C 217.046875 182.109375 217.464844 181.765625 217.914062 181.464844 C 218.367188 181.164062 218.84375 180.90625 219.34375 180.699219 C 219.84375 180.492188 220.363281 180.335938 220.894531 180.230469 C 221.425781 180.125 221.964844 180.070312 222.507812 180.070312 C 223.050781 180.070312 223.589844 180.125 224.121094 180.230469 C 224.652344 180.335938 225.171875 180.492188 225.671875 180.699219 C 226.171875 180.90625 226.648438 181.164062 227.101562 181.464844 C 227.550781 181.765625 227.96875 182.109375 228.355469 182.492188 C 228.738281 182.875 229.082031 183.292969 229.382812 183.746094 C 229.683594 184.195312 229.9375 184.671875 230.144531 185.175781 C 230.355469 185.675781 230.511719 186.191406 230.617188 186.726562 C 230.722656 187.257812 230.773438 187.796875 230.773438 188.339844 Z M 230.773438 188.339844 " fill-opacity="1" fill-rule="nonzero"/><g clip-path="url(#591b1f1e46)"><path fill="#104f55" d="M 293.710938 84.910156 L 189.773438 51.667969 L 81.449219 84.910156 L 80.4375 85.414062 L 81.449219 85.921875 L 127.511719 107.855469 C 127.511719 108.363281 127.34375 108.867188 127.34375 109.542969 L 127.34375 127.429688 C 144.21875 116.292969 165.644531 110.722656 187.414062 110.722656 C 207.660156 110.722656 230.101562 114.773438 247.480469 126.078125 L 247.480469 109.375 C 247.480469 109.035156 247.480469 108.53125 247.480469 108.191406 L 293.542969 85.75 L 294.554688 85.246094 Z M 293.710938 84.910156 " fill-opacity="1" fill-rule="nonzero"/></g><path fill="#ffffff" d="M 97.816406 84.738281 C 101.699219 85.414062 97.816406 92.332031 97.816406 92.332031 C 97.816406 92.332031 94.105469 85.414062 97.816406 84.738281 Z M 97.816406 84.738281 " fill-opacity="1" fill-rule="nonzero"/><path fill="#fca203" d="M 97.816406 92.164062 L 101.867188 142.78125 L 93.9375 142.78125 Z M 97.816406 92.164062 " fill-opacity="1" fill-rule="nonzero"/></svg>